<?xml version="1.0" encoding="utf-8"?>
<!-- Generator: Adobe Illustrator 26.0.3, SVG Export Plug-In . SVG Version: 6.00 Build 0)  -->
<svg version="1.0" id="katman_1" xmlns="http://www.w3.org/2000/svg" xmlns:xlink="http://www.w3.org/1999/xlink" x="0px" y="0px"
	 viewBox="0 0 600 450" style="enable-background:new 0 0 600 450;" xml:space="preserve">
<style type="text/css">
	.st0{clip-path:url(#SVGID_00000108305500044519192580000018124385715786645890_);}
	.st1{fill:#2D2D2D;}
</style>
<g>
	<defs>
		<rect id="SVGID_1_" x="89.6" y="165.6" width="420.8" height="119.5"/>
	</defs>
	<clipPath id="SVGID_00000121244496815438564690000006579150429144473763_">
		<use xlink:href="#SVGID_1_"  style="overflow:visible;"/>
	</clipPath>
	<g style="clip-path:url(#SVGID_00000121244496815438564690000006579150429144473763_);">
		<path class="st1" d="M155.1,284.9c-2.2,0.1-4.3-0.7-6-2.2c-1.6-1.5-2.7-3.5-2.9-5.7l-1-7.8c-9.5-2.7-15-9.7-16.5-20.9l-8.5-65.8
			c-1.8-0.3-3.7-0.4-5.5-0.4c-2.7,0-5.5,0.3-8.1,1.1V283H89.8v-80.2c0-10.9,4.9-18.6,13.8-21.8v-5.2c0-6,3.6-10,9-10
			s8.8,3.4,9.6,9.5l0.7,4.8c9.7,2.7,15.4,10.5,17.1,23.3l7.9,63.4c4.7,0.9,9.6,0.9,14.3,0l7.9-63.4c1.6-12.7,7.4-20.5,17.1-23.3
			l0.7-4.8c0.9-6.1,4.3-9.5,9.6-9.5c5.3,0,9,4,9,10v5.2c8.9,3.2,13.8,10.9,13.8,21.8v80.2h-16.8v-99.7c-2.6-0.7-5.4-1.1-8.1-1.1
			c-1.9,0-3.7,0.1-5.5,0.4l-8.5,65.8c-1.4,10.9-7.1,18.1-16.5,20.9l-0.9,7.8c-0.1,2.2-1.2,4.3-2.8,5.8
			C159.5,284.3,157.3,285,155.1,284.9z M148.3,270l0.9,6.7c0.1,1.5,0.8,2.9,1.9,3.8c1.1,1,2.5,1.5,4,1.4c0.7,0.1,1.5,0,2.2-0.3
			c0.7-0.2,1.3-0.6,1.9-1.1c0.5-0.5,1-1.1,1.3-1.8c0.3-0.7,0.5-1.4,0.5-2.1l0.9-6.7C157.3,270.7,152.8,270.7,148.3,270z M206.5,280
			h10.8v-77.2c0-9.2-3.7-15.6-10.8-18.6V280z M92.8,280h10.8v-95.8c-7.1,3-10.7,9.3-10.7,18.6L92.8,280z M123.4,183.4l8.4,64.6
			c1.2,9.3,5.6,15.4,13.1,18l-7.7-62.2C135.7,192.8,131.2,186.1,123.4,183.4z M186.8,183.4c-7.8,2.7-12.3,9.4-13.7,20.4l-7.7,62.2
			c7.5-2.6,11.9-8.7,13.1-18L186.8,183.4z M106.6,180.1c2.7-0.6,5.4-1,8.1-0.9c1.7,0,3.4,0.1,5.1,0.3l-0.5-3.7
			c-0.7-4.6-2.9-6.9-6.7-6.9c-3.8,0-6,2.7-6,7V180.1z M195.4,179.1c2.7,0,5.5,0.3,8.1,0.9v-4.2c0-4.3-2.3-7-6-7
			c-3.7,0-6,2.3-6.7,6.9l-0.5,3.7C192,179.2,193.7,179.1,195.4,179.1L195.4,179.1z"/>
		<path class="st1" d="M266.5,283H250V167.8h16.4V283z M253,280h10.5V170.8H253V280z"/>
		<path class="st1" d="M373.2,284.9c-7.1,0-8.8-6.5-9.3-8.7l-1.2-5.5c-10.7-1.9-17.2-8.8-19.9-21l-15.5-67.3
			c-1.8-0.2-3.6-0.3-5.3-0.3c-3,0-5.9,0.4-8.8,1.2v99.6h-16.8v-80.6c0-10.4,4.7-17.7,13.8-21.1v-5.4c0-6,3.6-10,9-10
			c4.7,0,8.1,3,9.2,7.9l1.4,6.1c10.4,1.9,16.7,8.6,19.6,21l15.8,67.3c1.8,0.2,3.6,0.3,5.4,0.3c3,0,5.9-0.3,8.7-1.1v-99.6H396V251
			c0,8.5-5,15.2-13.8,18.5v5.2C382.2,281,378.7,284.9,373.2,284.9z M365.8,271.2l0.9,4.3c1.1,4.5,3,6.4,6.4,6.4c3.8,0,6-2.6,6-7.2
			v-4.3c-2.9,0.7-5.8,1-8.7,0.9C368.9,271.4,367.4,271.3,365.8,271.2L365.8,271.2L365.8,271.2z M299.4,280h10.8v-95.6
			c-7.2,3.1-10.8,9.1-10.8,17.9L299.4,280z M330.5,183l15.2,66.1c2.4,10.6,7.6,16.5,16.3,18.5l-15.5-66.1
			C343.9,190.8,338.9,185,330.5,183z M382.2,170.8v95.6c7-3,10.8-8.3,10.8-15.3v-80.3H382.2z M313.2,180.2c2.9-0.7,5.8-1.1,8.8-1.1
			c1.5,0,3.1,0.1,4.6,0.2v0l-1.1-4.9c-0.5-2.1-1.9-5.6-6.2-5.6c-4.3,0-6,3.6-6,7V180.2z"/>
		<path class="st1" d="M511,283h-17.5l-8.6-34.3h-48.6l-8.5,34.3h-17.5l22.6-83.3c2.6-9.5,8.6-16,17.3-18.9l1.6-6.5
			c0.9-3.6,2.8-8.4,8.8-8.4c6,0,7.9,4.7,8.8,8.3l1.5,6.6c8.7,2.8,14.7,9.4,17.3,18.9L511,283z M495.8,280h11.3l-21.7-79.5
			c-2.2-7.8-6.8-13.3-13.6-16.1l13.4,53.1H436l13.3-53.2c-6.8,2.8-11.4,8.4-13.6,16.1L414.1,280h11.3l8.5-34.3h53.2L495.8,280z
			 M439.9,234.4h41.5l-12.9-51.3c-5.2-1.3-10.6-1.3-15.8,0L439.9,234.4z M453.5,179.8v0.1c4.7-1,9.5-1,14.2,0v-0.1l-1.2-4.9
			c-1.1-4.4-2.8-6.1-5.9-6.1s-4.8,1.7-5.9,6.1L453.5,179.8L453.5,179.8z"/>
	</g>
</g>
</svg>
